HIERARCHY
ROOT joint_0
{
	OFFSET 0.000000 0.000000 0.000000
	CHANNELS 6 Xposition Yposition Zposition Zrotation Yrotation Xrotation 
	JOINT joint_1
	{
		OFFSET 7.566162 2.250183 114.799927
		CHANNELS 3 Zrotation Yrotation Xrotation
		JOINT joint_2
		{
			OFFSET -5.201660 -0.414001 104.936035
			CHANNELS 3 Zrotation Yrotation Xrotation
			JOINT joint_3
			{
				OFFSET -6.923584 -0.419739 104.718018
				CHANNELS 3 Zrotation Yrotation Xrotation
				JOINT joint_4
				{
					OFFSET 3.108887 2.881104 149.449951
					CHANNELS 3 Zrotation Yrotation Xrotation
					JOINT joint_5
					{
						OFFSET 19.988770 5.920349 90.786987
						CHANNELS 3 Zrotation Yrotation Xrotation
						End Site
						{
							OFFSET 0.000000 0.000000 0.000000
						}
					}
				}
				JOINT joint_6
				{
					OFFSET 9.283936 -30.015930 84.410034
					CHANNELS 3 Zrotation Yrotation Xrotation
					JOINT joint_7
					{
						OFFSET 47.243164 -155.716736 -23.241089
						CHANNELS 3 Zrotation Yrotation Xrotation
						JOINT joint_8
						{
							OFFSET 31.323730 -15.356873 -268.798950
							CHANNELS 3 Zrotation Yrotation Xrotation
							JOINT joint_9
							{
								OFFSET 28.122314 -2.114624 -262.450012
								CHANNELS 3 Zrotation Yrotation Xrotation
								End Site
								{
									OFFSET 0.000000 0.000000 0.000000
								}
							}
						}
					}
				}
				JOINT joint_10
				{
					OFFSET -5.580566 33.311218 83.498047
					CHANNELS 3 Zrotation Yrotation Xrotation
					JOINT joint_11
					{
						OFFSET -22.773438 160.515381 -27.138062
						CHANNELS 3 Zrotation Yrotation Xrotation
						JOINT joint_12
						{
							OFFSET 27.004395 30.848877 -267.937988
							CHANNELS 3 Zrotation Yrotation Xrotation
							JOINT joint_13
							{
								OFFSET 32.625000 14.824585 -261.518005
								CHANNELS 3 Zrotation Yrotation Xrotation
								End Site
								{
									OFFSET 0.000000 0.000000 0.000000
								}
							}
						}
					}
				}
			}
		}
	}
	JOINT joint_14
	{
		OFFSET 20.623535 -83.447632 -106.174011
		CHANNELS 3 Zrotation Yrotation Xrotation
		JOINT joint_15
		{
			OFFSET 0.661865 -23.563843 -459.915039
			CHANNELS 3 Zrotation Yrotation Xrotation
			JOINT joint_16
			{
				OFFSET -23.461670 -28.727966 -444.760971
				CHANNELS 3 Zrotation Yrotation Xrotation
				JOINT joint_17
				{
					OFFSET 178.992920 54.047363 -80.113001
					CHANNELS 3 Zrotation Yrotation Xrotation
					End Site
					{
						OFFSET 0.000000 0.000000 0.000000
					}
				}
			}
		}
	}
	JOINT joint_18
	{
		OFFSET -19.571533 84.686279 -105.380005
		CHANNELS 3 Zrotation Yrotation Xrotation
		JOINT joint_19
		{
			OFFSET -22.949951 3.639404 -459.933044
			CHANNELS 3 Zrotation Yrotation Xrotation
			JOINT joint_20
			{
				OFFSET -33.690674 4.092651 -445.010971
				CHANNELS 3 Zrotation Yrotation Xrotation
				JOINT joint_21
				{
					OFFSET 187.419678 18.953857 -76.759001
					CHANNELS 3 Zrotation Yrotation Xrotation
					End Site
					{
						OFFSET 0.000000 0.000000 0.000000
					}
				}
			}
		}
	}
}
MOTION
Frames: 10
Frame Time: 0.016667
-3301.547363 867.986023 1111.765015 -14.791439 1.650443 0.000108 0.273566 -2.106441 1.551783 0.212127 0.258882 -0.255391 0.245563 -0.435004 0.240556 0.080577 0.626362 -0.520015 0.000000 0.000000 0.000000 -0.398414 3.634057 -0.273887 0.145029 3.899768 0.819713 -0.037453 1.238305 -0.049175 0.000000 0.000000 0.000000 3.029499 3.901755 -2.798730 0.076649 3.422843 -2.803839 0.396932 2.002106 1.855523 0.000000 0.000000 0.000000 -0.393760 2.562311 0.671529 -0.223790 -2.231792 -0.204224 -0.289302 -2.661461 0.673633 0.000000 0.000000 0.000000 1.626560 -0.892324 -0.346840 1.604959 -0.561427 0.120968 1.559378 -0.777350 0.716993 0.000000 0.000000 0.000000 
-3299.934814 868.220886 1111.645996 -14.787194 1.906621 -0.067479 0.253938 -1.540762 1.498378 0.194256 0.222394 -0.271180 0.228708 -0.347925 0.236138 0.100875 -0.305691 -0.370979 0.000000 0.000000 0.000000 -0.333706 3.897779 -0.414590 0.135956 4.168103 0.648651 0.087034 -0.005258 0.744396 0.000000 0.000000 0.000000 2.801464 4.160813 -2.739615 0.125996 3.693055 -3.016160 0.276015 0.803663 1.681474 0.000000 0.000000 0.000000 -0.382283 2.371724 0.704508 -0.215893 -2.238485 -0.190901 -0.280925 -2.679964 0.682983 0.000000 0.000000 0.000000 1.621567 -1.087267 -0.302665 1.605448 -0.566128 0.091904 1.557231 -0.798924 0.718302 0.000000 0.000000 0.000000 
-3297.604248 868.339722 1111.422974 -14.794946 2.384048 -0.176658 0.229314 -1.256833 1.449324 0.173045 0.202352 -0.277448 0.208009 -0.299020 0.231880 0.118951 -1.279652 -0.176722 0.000000 0.000000 0.000000 -0.203025 4.143297 -0.509974 0.157321 4.407116 0.466433 0.196025 -0.753913 1.417482 0.000000 0.000000 0.000000 2.564964 4.428790 -2.679732 0.167466 3.978665 -3.185625 0.182534 0.015764 1.425465 0.000000 0.000000 0.000000 -0.400039 2.007299 0.760901 -0.237792 -2.308556 -0.146912 -0.306554 -2.695867 0.676394 0.000000 0.000000 0.000000 1.647706 -1.432758 -0.221023 1.639739 -0.666278 0.068473 1.588862 -0.828700 0.734272 0.000000 0.000000 0.000000 
-3294.337646 868.283508 1111.036011 -14.820130 3.253535 -0.360647 0.184147 -1.539454 1.421462 0.142912 0.207058 -0.265692 0.177324 -0.311922 0.226021 0.129656 -2.302031 0.099917 0.000000 0.000000 0.000000 0.054026 4.328818 -0.532029 0.195912 4.585980 0.298419 0.242382 -0.528578 1.845152 0.000000 0.000000 0.000000 2.351732 4.720373 -2.606168 0.176410 4.285075 -3.297580 0.121365 -0.015143 0.971888 0.000000 0.000000 0.000000 -0.466098 1.316569 0.872311 -0.308925 -2.491304 -0.055273 -0.390634 -2.688318 0.636731 0.000000 0.000000 0.000000 1.723126 -2.067032 -0.073733 1.728189 -0.935750 0.057566 1.674871 -0.849937 0.771636 0.000000 0.000000 0.000000 
-3290.352051 868.111206 1110.545044 -14.859220 4.345860 -0.588157 0.125522 -2.105775 1.401240 0.109871 0.231204 -0.246228 0.143569 -0.368888 0.221716 0.141749 -3.356641 0.426537 0.000000 0.000000 0.000000 0.381643 4.492192 -0.520343 0.246631 4.743829 0.134415 0.260008 0.193515 2.165136 0.000000 0.000000 0.000000 2.129164 5.023928 -2.538695 0.170370 4.610248 -3.363178 0.079569 0.357834 0.420000 0.000000 0.000000 0.000000 -0.562457 0.450774 1.011863 -0.410977 -2.737724 0.069016 -0.511534 -2.665086 0.576079 0.000000 0.000000 0.000000 1.828362 -2.854541 0.109487 1.850233 -1.302059 0.049760 1.793277 -0.864754 0.821549 0.000000 0.000000 0.000000 
-3285.992432 867.913330 1110.067017 -14.910614 5.277125 -0.781708 0.081718 -2.501104 1.364453 0.091050 0.257159 -0.226322 0.124036 -0.424761 0.217439 0.157244 -4.178124 0.682973 0.000000 0.000000 0.000000 0.662534 4.643637 -0.457257 0.291460 4.852641 -0.078293 0.280568 0.788687 2.448092 0.000000 0.000000 0.000000 1.950104 5.212802 -2.572688 0.173372 4.850952 -3.275343 0.069980 0.815716 0.047979 0.000000 0.000000 0.000000 -0.661965 -0.239775 1.099949 -0.514856 -2.938559 0.193666 -0.628769 -2.678863 0.528369 0.000000 0.000000 0.000000 1.936737 -3.468730 0.258084 1.974393 -1.608612 0.038148 1.911722 -0.921180 0.875583 0.000000 0.000000 0.000000 
-3281.433350 867.701904 1109.691040 -14.984873 5.849239 -0.899600 0.075012 -2.540659 1.300535 0.099882 0.286221 -0.207103 0.131783 -0.462087 0.207380 0.170167 -4.590105 0.789014 0.000000 0.000000 0.000000 0.872692 4.764756 -0.290445 0.313695 4.869164 -0.362107 0.287089 1.162663 2.566415 0.000000 0.000000 0.000000 1.841051 5.180107 -2.770581 0.187351 4.916634 -2.952519 0.128565 1.469665 0.072747 0.000000 0.000000 0.000000 -0.761927 -0.578906 1.086929 -0.616173 -3.036359 0.307318 -0.730529 -2.757297 0.507101 0.000000 0.000000 0.000000 2.056825 -3.728494 0.343575 2.106514 -1.789426 0.016147 2.035513 -1.062024 0.940254 0.000000 0.000000 0.000000 
-3276.498779 867.465942 1109.328003 -15.068128 6.267160 -0.984766 0.087191 -2.424278 1.223177 0.122132 0.317122 -0.189151 0.152884 -0.485748 0.193994 0.178245 -4.773962 0.815799 0.000000 0.000000 0.000000 1.044518 4.868335 -0.080330 0.323343 4.837337 -0.687163 0.291992 1.413920 2.646297 0.000000 0.000000 0.000000 1.763946 5.031747 -3.049837 0.213151 4.895623 -2.487273 0.222046 2.217123 0.279232 0.000000 0.000000 0.000000 -0.864302 -0.752082 1.021648 -0.718060 -3.086689 0.419123 -0.825956 -2.879222 0.501843 0.000000 0.000000 0.000000 2.180806 -3.822811 0.398122 2.240766 -1.908465 -0.008530 2.160428 -1.252254 1.010286 0.000000 0.000000 0.000000 
-3271.005371 867.257996 1108.828979 -15.115459 6.754298 -1.085487 0.085121 -2.282675 1.144661 0.129072 0.333559 -0.179706 0.159457 -0.482779 0.183167 0.184040 -5.007156 0.867940 0.000000 0.000000 0.000000 1.156426 5.011498 0.022855 0.336556 4.861437 -1.025960 0.362385 1.202505 3.131626 0.000000 0.000000 0.000000 1.682672 4.966566 -3.260333 0.257243 4.946776 -2.057049 0.245580 2.422612 0.310120 0.000000 0.000000 0.000000 -0.950529 -0.953526 0.970595 -0.803193 -3.151317 0.524602 -0.905413 -3.032554 0.513322 0.000000 0.000000 0.000000 2.255131 -3.983436 0.446115 2.326126 -2.000749 -0.021430 2.238737 -1.432743 1.060171 0.000000 0.000000 0.000000 
-3265.152832 867.096741 1108.160034 -15.100398 7.394931 -1.219741 0.051997 -2.118690 1.055762 0.104386 0.323496 -0.181716 0.135389 -0.446353 0.178125 0.187665 -5.427621 1.005566 0.000000 0.000000 0.000000 1.193666 5.183276 0.013227 0.365218 4.928055 -1.381912 0.512255 0.517525 4.071248 0.000000 0.000000 0.000000 1.560628 5.016674 -3.357044 0.312156 5.085272 -1.763653 0.184367 1.986704 0.142832 0.000000 0.000000 0.000000 -1.004222 -1.276141 0.962696 -0.856484 -3.242789 0.613809 -0.955770 -3.220338 0.548299 0.000000 0.000000 0.000000 2.250034 -4.328816 0.494247 2.334256 -2.048653 -0.011821 2.243861 -1.591030 1.077811 0.000000 0.000000 0.000000 
